<?xml version="1.0" encoding="UTF-8"?>
<svg id="a" data-name="Layer 1" xmlns="http://www.w3.org/2000/svg" width="148" height="96" viewBox="0 0 148 96">
  <g>
    <path d="M35,65v-10h6v1h1v8h-1v1h-6ZM39,63v-6h-1v6h1Z" fill="#fff" stroke-width="0"/>
    <path d="M43,65v-10h7v10h-7ZM47,63v-6h-1v6h1Z" fill="#fff" stroke-width="0"/>
    <path d="M51,65v-10h3v8h1v-8h3v10h-7Z" fill="#fff" stroke-width="0"/>
    <path d="M59,65v-10h7v4h-1v1h1v5h-7ZM63,59v-2h-1v2h1ZM63,63v-2.001h-1v2.001h1Z" fill="#fff" stroke-width="0"/>
    <path d="M67,65v-10h2.988l.012,8h3v2h-6Z" fill="#fff" stroke-width="0"/>
    <path d="M74,65v-10h6.982v2h-3.999v2h3.999v1.999h-3.999l.017,2.001h4l-.018,1.998-6.982.002Z" fill="#fff" stroke-width="0"/>
    <path d="M83,65v-2h-1v-8h2.981l.019,5h1v-2h2v2h1v-5h3v8h-1l-.021,1.998-2.979.002v-3h-2v3h-3Z" fill="#fff" stroke-width="0"/>
    <path d="M93,65v-10h6.975v9.998l-6.975.002ZM97,63v-6h-1v6h1Z" fill="#fff" stroke-width="0"/>
    <path d="M101,65v-10h7v4h-1.024l.024,1h1v5h-3v-4.001h-1v4.001h-3ZM105,59v-2h-1v2h1Z" fill="#fff" stroke-width="0"/>
    <path d="M109,65v-10h5.974v1.004h.997l.029,7.996h-1v1h-6ZM113,63v-6h-1v6h1Z" fill="#fff" stroke-width="0"/>
  </g>
  <g>
    <path d="M59,78.998v-9.998h2.996l.004,8h3v2l-6-.002Z" fill="#fff" stroke-width="0"/>
    <path d="M66,79v-10h7v10h-3v-4.001h-1v4.001h-3ZM70,73v-2h-1v2h1Z" fill="#fff" stroke-width="0"/>
    <path d="M74,79v-10h6.988v4h-.997v1.002h.997v4.996l-6.988.002ZM78,73v-2h-1.011l.011,2h1ZM78,77v-2.001h-1v2.001h1Z" fill="#fff" stroke-width="0"/>
    <path d="M82,79v-2h4v-2.001h-4v-5.999h6.986v2h-3.999v2h3.999v5.998l-6.986.002Z" fill="#fff" stroke-width="0"/>
  </g>
  <g>
    <path d="M80,38h-1v-1h-1s-1,0-1,0v-2h-1v-1h-1v-1h-2v1h-1v1h-1v1h-1v1h-1v1h-1v1h-1v2h1v1h1v1h2v2h1v1h1v1h2v-1h1v-1h1v-1h1v-1h1v-1h1v-1h1v-2h-1v-1ZM78,41h-1v1h-1v1h-1v1h-1v-1h-1v-1h1v-1h1v-1h1v-1h1v1h1v1ZM70,40v-1h1v-1h1v-1h1v-1h1v1h1v1h-1v1h-1v1h-1v1h-1v-1h-1Z" fill="#fff" stroke-width="0"/>
    <path d="M67,36h1v-2h2v-1h1v-1h1v-2h-1v-1h-1v-1h-1v-1h-1v-1h-1v-1h-1v-1h-2v1h-1v1h-1v2h-2v1h-1v1h-1v2h1v1h1v1h1v1h1v1h1v1h1v1h2v-1h1v-1ZM64,35v-1h-1v-1h-1v-1h-1v-1h1v-1h1v1h1v1h1v1h1v1h-1v1h-1ZM64,28h1v-1h1v1h1v1h1v1h1v1h-1v1h-1v-1h-1v-1h-1v-1h-1v-1Z" fill="#fff" stroke-width="0"/>
    <path d="M89,30v-1h-1v-1h-1v-1h-1v-1h-1v-1h-1v-1h-1s-1,0-1,0v1h-1v1h-1v2h-2v1h-1v1h-1v2h1v1h1v1h1v1h1v1h1v1h1v1h2v-1h1v-1h1v-2h2v-1h1v-1h1v-2h-1ZM86,31v1h-1v-1h-1v-1h-1s0-1,0-1h-1v-1h1v-1h1s0,1,0,1h1v1h1v1h1v1h-1ZM84,34h-1v1h-1v-1h-1v-1h-1v-1h-1v-1h1v-1h1v1h1v1h1v1h1s0,1,0,1Z" fill="#fff" stroke-width="0"/>
    <path d="M68,24h1v1h2v2h1v1h1v1h2v-1h1v-1h1v-1h1v-1h1v-1h1v-1h1v-2h-1v-1h-1v-1h-2v-2h-1v-1h-1s0-1,0-1h-2v1h-1v1h-1v1h-1v1h-1v1h-1v1h-1v2h1v1ZM70,21h1v-1h1v-1h1v-1h1v1h1v1h-1v1h-1v1h-1v1h-1v-1h-1v-1ZM78,22v1h-1v1h-1v1h-1v1h-1v-1h-1v-1h1v-1h1v-1h1v-1h1v1h1Z" fill="#fff" stroke-width="0"/>
  </g>
</svg>