<?xml version="1.0" encoding="UTF-8"?>
<svg id="a" data-name="Layer 1" xmlns="http://www.w3.org/2000/svg" width="400" height="400" viewBox="0 0 400 400">
  <rect x="0" y="0" width="400" height="400" rx="200" ry="200" fill="#0d2b43" stroke-width="0"/>
  <g>
    <path d="M258.334,275v-8.333h-8.333s0,0,0,0v-8.333s-8.333,0-8.333,0v-8.333h-8.333s-8.333,0-8.333,0v-16.667h-8.333s0-8.333,0-8.333h-8.333s0-8.333,0-8.333h-8.333s-8.333,0-8.333,0v8.333h-8.333s0,8.333,0,8.333h-8.333v8.333h-8.333v8.333h-8.333s0,8.333,0,8.333h-8.333v8.333s-8.333,0-8.333,0v16.667h8.333s0,0,0,0v8.333s8.333,0,8.333,0v8.333h8.333s8.333,0,8.333,0v16.667h8.333v8.333h8.333v8.333h16.667v-8.333s0,0,0,0h8.333v-8.333s0-8.333,0-8.333v8.333s8.333,0,8.333,0v-8.333h8.333v-8.333h8.333s0-8.333,0-8.333h8.333s0-8.333,0-8.333h8.333v-8.333ZM200,258.333v8.333s-8.333,0-8.333,0v8.333h-8.333v8.333h-8.333v-8.333h-8.333v-8.333h8.333v-8.333s8.333,0,8.333,0v-8.333s8.333,0,8.333,0v-8.333h8.333v8.333h8.333v8.333s-8.333,0-8.333,0ZM208.334,300v8.333h-8.333v-8.333h-8.333v-8.333s8.333,0,8.333,0v-8.333s8.333,0,8.333,0v-8.333h8.333v-8.333h8.333v8.333h8.333v8.333h-8.333v8.333s-8.333,0-8.333,0v8.333s-8.333,0-8.333,0Z" fill="#fff" stroke-width="0"/>
    <path d="M141.667,241.667h8.333v-16.667h8.333s8.333,0,8.333,0v-8.333h8.333v-8.333h8.333v-16.667h-8.333v-8.333h-8.333v-8.333h-8.333v-8.333h-8.333v-8.333h-8.333s0-8.333,0-8.333h-8.333s0-8.333,0-8.333h-8.333s-8.333,0-8.333,0v8.333s0,0,0,0h-8.333v8.333h-8.333v16.667h-8.333s-8.333,0-8.333,0v8.333h-8.333v8.333h-8.333v16.667h8.333s0,0,0,0v8.333h8.333v8.333h8.333v8.333h8.333v8.333h8.333s0,8.333,0,8.333h8.333s0,8.333,0,8.333h8.333s8.333,0,8.333,0v-8.333h8.333v-8.333ZM116.667,225h-8.333s0-8.333,0-8.333h-8.333s0-8.333,0-8.333h-8.333v-8.333h8.333v-8.333h8.333s0,8.333,0,8.333h8.333s0,8.333,0,8.333h8.333s0,8.333,0,8.333h8.333s0,8.333,0,8.333h-8.333v8.333h-8.333s0-8.333,0-8.333ZM116.667,175h8.333v-8.333h8.333s0,8.333,0,8.333h8.333s0,8.333,0,8.333h8.333s0,8.333,0,8.333h8.333v8.333s-8.333,0-8.333,0v8.333s-8.333,0-8.333,0v-8.333h-8.333s0-8.333,0-8.333h-8.333s0-8.333,0-8.333h-8.333s0-8.333,0-8.333Z" fill="#fff" stroke-width="0"/>
    <path d="M333.334,191.666h-8.333s0,0,0,0v-8.333h-8.333s0-8.333,0-8.333h-8.333s0-8.333,0-8.333h-8.333s0-8.333,0-8.333h-8.333v-8.333h-8.333v-8.333h-16.667v8.333s0,0,0,0h-8.333v8.333h-8.333v16.667h-16.667v8.333h-8.333v8.333h-8.333v16.667h8.333v8.333h8.333v8.333h8.333v8.333h8.333v8.333h8.333v8.333h8.333v8.333h16.667v-8.333h8.333v-8.333h8.333v-16.667h16.667v-8.333h8.333v-8.333h8.333v-16.667ZM300,200v8.333s-8.333,0-8.333,0v-8.333h-8.333v-8.333h-8.333v-8.333h-8.333v-8.333h8.333v-8.333h8.333v8.333h8.333v8.333h8.333v8.333h8.333s0,8.333,0,8.333h-8.333ZM283.334,225h-8.333v8.333h-8.333v-8.333h-8.333v-8.333h-8.333v-8.333h-8.333v-8.333h8.333v-8.333h8.333v8.333h8.333v8.333h8.333v8.333h8.333v8.333Z" fill="#fff" stroke-width="0"/>
    <path d="M150,133.333v8.333h8.333v8.333s8.333,0,8.333,0h8.333v8.333s0,8.333,0,8.333h8.333s0,8.333,0,8.333h8.333v8.333h16.667v-8.333h8.333s0-8.333,0-8.333h8.333v-8.333h8.333v-8.333h8.333v-8.333h8.333v-8.333h8.333v-8.333s0-8.333,0-8.333h-8.333s0,0,0,0v-8.333h-8.333s0-8.333,0-8.333h-8.333s-8.333,0-8.333,0v-8.333s0-8.333,0-8.333h-8.333v-8.333h-8.333s0-8.333,0-8.333h-8.333s-8.333,0-8.333,0v8.333h-8.333v8.333h-8.333v8.333h-8.333v8.333h-8.333v8.333h-8.333v8.333h-8.333v16.667h8.333ZM175,116.667v-8.333h8.333v-8.333h8.333v-8.333h8.333v8.333h8.333v8.333h-8.333v8.333h-8.333v8.333h-8.333v8.333s-8.333,0-8.333,0v-8.333h-8.333v-8.333h8.333ZM225,125h8.333s0,8.333,0,8.333h-8.333v8.333h-8.333v8.333h-8.333v8.333h-8.333s0-8.333,0-8.333h-8.333s0-8.333,0-8.333h8.333v-8.333h8.333s0-8.333,0-8.333h8.333v-8.333h8.333s0,8.333,0,8.333Z" fill="#fff" stroke-width="0"/>
  </g>
</svg>